<svg width="299.4800109863281px" height="71.84000091552734px" xmlns="http://www.w3.org/2000/svg" viewBox="100.25999450683594 39.07999954223633 299.4800109863281 71.84000091552734" style="background: none;" preserveAspectRatio="xMidYMid"><defs><linearGradient id="editing-glowing-gradient" x1="0.8146601955249186" x2="0.18533980447508142" y1="0.8885729807284856" y2="0.11142701927151444"><stop offset="0" stop-color="#c32361"></stop><stop offset="1" stop-color="#4c60ea"></stop></linearGradient><filter id="editing-glowing" x="-100%" y="-100%" width="300%" height="300%"><feGaussianBlur in="SourceGraphic" result="blur" stdDeviation="1"></feGaussianBlur><feMerge><feMergeNode in="blur"></feMergeNode><feMergeNode in="SourceGraphic"></feMergeNode></feMerge></filter></defs><g filter="url(#editing-glowing)"><g transform="translate(150.94619143009186, 90.18000221252441)"><path d="M15.05 0.66L15.05 0.66L15.05 0.66Q10.82 0.66 10.43-5.35L10.43-5.35L4.75-5.35L4.75-5.35Q4.09-3.83 3.63-2.51L3.63-2.51L2.77 0L-1.85 0L8.55-21.78L15.64-21.78L17.03-5.74L17.03-5.74Q17.36-2.28 18.68-1.25L18.68-1.25L18.68-1.25Q17.72 0.66 15.05 0.66ZM7.59-11.95L5.78-7.76L10.33-7.76L9.93-16.24L9.93-17.13L7.59-11.95ZM20.63 3.73L20.63 3.73L20.63 3.73Q20.63 2.64 21.32 1.96L21.32 1.96L21.32 1.96Q22.01 1.29 23.07 1.29L23.07 1.29L36.96 1.29L36.96 1.29Q37.13 1.85 37.13 2.28L37.13 2.28L37.13 2.28Q37.13 3.27 36.45 3.96L36.45 3.96L36.45 3.96Q35.77 4.65 34.39 4.65L34.39 4.65L20.76 4.65L20.76 4.65Q20.63 4.22 20.63 3.73ZM56.10-15.25L56.10-15.25L56.10-15.25Q56.60-16.24 56.60-17.16L56.60-17.16L56.60-17.16Q56.60-18.08 56.50-18.60L56.50-18.60L56.50-18.60Q56.40-19.11 56.17-19.50L56.17-19.50L56.17-19.50Q55.67-20.36 54.68-20.36L54.68-20.36L54.68-20.36Q53.46-20.36 52.47-19.47L52.47-19.47L52.47-19.47Q51.41-18.55 51.41-17.09L51.41-17.09L51.41-17.09Q51.41-16.17 52.06-15.46L52.06-15.46L52.06-15.46Q52.70-14.75 53.69-14.09L53.69-14.09L53.69-14.09Q54.68-13.43 55.80-12.77L55.80-12.77L55.80-12.77Q56.93-12.11 57.92-11.32L57.92-11.32L57.92-11.32Q60.19-9.50 60.19-7.06L60.19-7.06L60.19-7.06Q60.19-5.41 59.32-4.01L59.32-4.01L59.32-4.01Q58.44-2.61 56.99-1.58L56.99-1.58L56.99-1.58Q53.82 0.66 49.63 0.66L49.63 0.66L49.63 0.66Q46.23 0.66 44.48-0.45L44.48-0.45L44.48-0.45Q42.74-1.55 42.74-3.23L42.74-3.23L42.74-3.23Q42.74-6.24 45.08-7.00L45.08-7.00L45.08-7.00Q45.74-7.23 46.74-7.23L46.74-7.23L46.74-7.23Q47.75-7.23 48.91-6.80L48.91-6.80L48.91-6.80Q48.38-5.45 48.38-4.22L48.38-4.22L48.38-4.22Q48.38-1.58 50.26-1.58L50.26-1.58L50.26-1.58Q51.48-1.58 52.49-2.48L52.49-2.48L52.49-2.48Q53.49-3.37 53.49-4.37L53.49-4.37L53.49-4.37Q53.49-5.38 52.85-6.11L52.85-6.11L52.85-6.11Q52.21-6.83 51.25-7.41L51.25-7.41L51.25-7.41Q50.29-7.99 49.19-8.55L49.19-8.55L49.19-8.55Q48.08-9.11 47.12-9.90L47.12-9.90L47.12-9.90Q44.88-11.71 44.88-14.62L44.88-14.62L44.88-14.62Q44.88-16.50 45.80-17.97L45.80-17.97L45.80-17.97Q46.73-19.44 48.21-20.43L48.21-20.43L48.21-20.43Q51.18-22.44 54.83-22.44L54.83-22.44L54.83-22.44Q58.48-22.44 60.24-21.35L60.24-21.35L60.24-21.35Q62.01-20.26 62.01-18.41L62.01-18.41L62.01-18.41Q62.01-16.80 60.75-15.77L60.75-15.77L60.75-15.77Q59.66-14.92 58.34-14.92L58.34-14.92L58.34-14.92Q57.02-14.92 56.10-15.25ZM64.14-0.99L64.14-0.99L64.14-0.99Q63.36-1.85 63.01-3.20L63.01-3.20L63.01-3.20Q62.67-4.55 62.67-6.77L62.67-6.77L62.67-6.77Q62.67-8.98 63.43-10.99L63.43-10.99L63.43-10.99Q64.19-13.00 65.57-14.45L65.57-14.45L65.57-14.45Q68.41-17.49 73.10-17.49L73.10-17.49L73.10-17.49Q74.78-17.49 76.00-16.93L76.00-16.93L81.64-17.49L79.20-4.62L79.20-4.62Q79.10-4.22 79.10-3.50L79.10-3.50L79.10-3.50Q79.10-2.77 79.55-2.31L79.55-2.31L79.55-2.31Q79.99-1.85 80.65-1.78L80.65-1.78L80.65-1.78Q80.32-0.66 79.12 0L79.12 0L79.12 0Q77.91 0.66 76.56 0.66L76.56 0.66L76.56 0.66Q75.21 0.66 74.30 0.15L74.30 0.15L74.30 0.15Q73.39-0.36 73.13-1.22L73.13-1.22L73.13-1.22Q72.60-0.40 71.48 0.13L71.48 0.13L71.48 0.13Q70.36 0.66 68.85 0.66L68.85 0.66L68.85 0.66Q67.35 0.66 66.13 0.26L66.13 0.26L66.13 0.26Q64.91-0.13 64.14-0.99ZM71.10-14.39L71.10-14.39L71.10-14.39Q70.72-13.79 70.39-12.79L70.39-12.79L70.39-12.79Q70.06-11.78 69.51-9.09L69.51-9.09L69.51-9.09Q68.97-6.40 68.97-4.49L68.97-4.49L68.97-4.49Q68.97-2.57 69.27-2.01L69.27-2.01L69.27-2.01Q69.56-1.45 70.09-1.45L70.09-1.45L70.09-1.45Q71.15-1.45 71.92-2.46L71.92-2.46L71.92-2.46Q72.70-3.47 73.00-5.25L73.00-5.25L74.75-14.92L74.75-14.92Q74.05-15.51 73.24-15.51L73.24-15.51L73.24-15.51Q72.44-15.51 71.96-15.25L71.96-15.25L71.96-15.25Q71.48-14.98 71.10-14.39ZM98.80-2.26L98.80-2.26L98.80-2.26Q97.42-0.86 95.52-0.10L95.52-0.10L95.52-0.10Q93.62 0.66 91.74 0.66L91.74 0.66L91.74 0.66Q89.86 0.66 89.20 0.33L89.20 0.33L88.18 5.94L81.48 6.60L86.03-16.83L91.41-17.39L90.98-15.11L90.98-15.11Q92.37-17.46 95.24-17.46L95.24-17.46L95.24-17.46Q98.47-17.46 100.19-15.38L100.19-15.38L100.19-15.38Q101.71-13.50 101.71-10.63L101.71-10.63L101.71-10.63Q101.71-7.76 100.95-5.71L100.95-5.71L100.95-5.71Q100.19-3.66 98.80-2.26ZM91.34-11.52L89.60-1.85L89.60-1.85Q90.29-1.25 91.15-1.25L91.15-1.25L91.15-1.25Q92.00-1.25 92.50-1.58L92.50-1.58L92.50-1.58Q92.99-1.91 93.36-2.57L93.36-2.57L93.36-2.57Q94.35-4.36 95.14-9.77L95.14-9.77L95.14-9.77Q95.37-11.35 95.37-12.90L95.37-12.90L95.37-12.90Q95.37-14.45 95.02-14.95L95.02-14.95L95.02-14.95Q94.68-15.44 94.02-15.44L94.02-15.44L94.02-15.44Q92.00-15.44 91.34-11.52L91.34-11.52ZM112.20-15.64L112.20-15.64L112.20-15.64Q113.98-17.49 117.74-17.49L117.74-17.49L117.74-17.49Q119.82-17.49 120.96-16.38L120.96-16.38L120.96-16.38Q122.10-15.28 122.10-13.25L122.10-13.25L122.10-13.25Q122.10-11.22 120.96-9.78L120.96-9.78L120.96-9.78Q119.82-8.35 117.71-7.76L117.71-7.76L117.71-7.76Q117.88-7.10 118.11-6.40L118.11-6.40L118.57-5.08L118.57-5.08Q119.20-3.40 119.69-2.81L119.69-2.81L119.69-2.81Q120.19-2.21 120.85-2.01L120.85-2.01L120.85-2.01Q120.48-0.66 119.16 0.07L119.16 0.07L119.16 0.07Q118.11 0.66 116.66 0.66L116.66 0.66L116.66 0.66Q112.40 0.66 111.84-5.91L111.84-5.91L111.84-5.91Q111.74-6.83 111.74-7.76L111.74-7.76L111.74-7.76Q113.39-8.22 114.54-9.77L114.54-9.77L114.54-9.77Q115.70-11.32 115.70-13.13L115.70-13.13L115.70-13.13Q115.70-14.95 114.41-14.95L114.41-14.95L114.41-14.95Q113.49-14.95 112.76-13.93L112.76-13.93L112.76-13.93Q112.04-12.90 111.71-11.15L111.71-11.15L109.53 0L102.86 0.66L107.48-23.10L114.11-23.76L113.36-19.83L113.36-19.83Q112.86-17.06 112.20-15.64ZM130.81 0.66L130.81 0.66L130.81 0.66Q123.55 0.66 123.55-6.17L123.55-6.17L123.55-6.17Q123.55-11.02 126.23-14.16L126.23-14.16L126.23-14.16Q129.06-17.49 133.98-17.49L133.98-17.49L133.98-17.49Q137.54-17.49 139.36-15.84L139.36-15.84L139.36-15.84Q141.17-14.19 141.17-10.72L141.17-10.72L141.17-10.72Q141.17-5.45 138.34-2.38L138.34-2.38L138.34-2.38Q135.56 0.66 130.81 0.66ZM131.67-13.70L131.67-13.70L131.67-13.70Q131.27-12.80 130.96-11.47L130.96-11.47L130.96-11.47Q130.65-10.13 130.25-8.02L130.25-8.02L130.25-8.02Q129.86-5.91 129.86-3.30L129.86-3.30L129.86-3.30Q129.86-2.44 130.14-1.88L130.14-1.88L130.14-1.88Q130.42-1.32 131.18-1.32L131.18-1.32L131.18-1.32Q131.93-1.32 132.41-1.68L132.41-1.68L132.41-1.68Q132.89-2.05 133.25-2.90L133.25-2.90L133.25-2.90Q133.91-4.42 134.44-7.24L134.44-7.24L134.44-7.24Q134.97-10.07 135.02-11.29L135.02-11.29L135.02-11.29Q135.07-12.51 135.07-13.41L135.07-13.41L135.07-13.41Q135.07-14.32 134.81-14.92L134.81-14.92L134.81-14.92Q134.54-15.51 133.80-15.51L133.80-15.51L133.80-15.51Q133.06-15.51 132.56-15.05L132.56-15.05L132.56-15.05Q132.07-14.59 131.67-13.70ZM143.65-3.30L143.65-3.30L143.65-3.30Q143.65-4.19 144.11-6.44L144.11-6.44L145.86-15.35L143.91-15.35L144.05-16.34L144.05-16.34Q148.00-17.52 151.83-20.43L151.83-20.43L153.42-20.43L152.63-16.83L155.20-16.83L154.90-15.35L152.36-15.35L150.68-6.44L150.68-6.44Q150.25-4.39 150.25-3.70L150.25-3.70L150.25-3.70Q150.25-2.11 151.63-1.78L151.63-1.78L151.63-1.78Q151.31-0.66 150.12 0L150.12 0L150.12 0Q148.93 0.66 147.25 0.66L147.25 0.66L147.25 0.66Q145.56 0.66 144.61-0.40L144.61-0.40L144.61-0.40Q143.65-1.45 143.65-3.30ZM172.06-5.54L172.06-5.25L172.06-5.25Q172.06-3.99 172.92-3.99L172.92-3.99L172.92-3.99Q174.24-3.99 175.26-5.91L175.26-5.91L175.26-5.91Q176.22-7.79 176.22-10.03L176.22-10.03L176.22-10.03Q176.22-13.89 174.37-15.69L174.37-15.69L174.37-15.69Q172.52-17.49 168.66-17.49L168.66-17.49L168.66-17.49Q166.68-17.49 164.87-16.63L164.87-16.63L164.87-16.63Q163.05-15.77 161.67-14.24L161.67-14.24L161.67-14.24Q160.28-12.71 159.46-10.59L159.46-10.59L159.46-10.59Q158.63-8.48 158.63-6.01L158.63-6.01L158.63-6.01Q158.63-2.41 160.74-0.87L160.74-0.87L160.74-0.87Q162.86 0.66 166.85 0.66L166.85 0.66L166.85 0.66Q168.47 0.66 169.98 0.15L169.98 0.15L169.98 0.15Q171.50-0.36 172.33-0.96L172.33-0.96L172.33-0.96Q172.49-0.86 172.64-0.54L172.64-0.54L172.64-0.54Q172.79-0.23 172.79 0L172.79 0L172.79 0Q172.79 1.25 171.57 1.95L171.57 1.95L171.57 1.95Q169.26 3.23 166.35 3.23L166.35 3.23L166.35 3.23Q163.45 3.23 161.42 2.71L161.42 2.71L161.42 2.71Q159.39 2.18 157.97 1.12L157.97 1.12L157.97 1.12Q154.97-1.09 154.97-5.08L154.97-5.08L154.97-5.08Q154.97-8.18 156.19-10.87L156.19-10.87L156.19-10.87Q157.41-13.56 159.46-15.56L159.46-15.56L159.46-15.56Q161.50-17.56 164.16-18.69L164.16-18.69L164.16-18.69Q166.82-19.83 169.32-19.83L169.32-19.83L169.32-19.83Q171.83-19.83 173.65-19.26L173.65-19.26L173.65-19.26Q175.46-18.68 176.78-17.56L176.78-17.56L176.78-17.56Q179.65-15.21 179.65-10.99L179.65-10.99L179.65-10.99Q179.65-7.10 177.54-4.55L177.54-4.55L177.54-4.55Q175.56-2.18 172.59-2.18L172.59-2.18L172.59-2.18Q171.11-2.18 170.31-2.67L170.31-2.67L170.31-2.67Q169.52-3.17 169.29-4.46L169.29-4.46L169.29-4.46Q168.76-3.14 167.82-2.66L167.82-2.66L167.82-2.66Q166.88-2.18 165.56-2.18L165.56-2.18L165.56-2.18Q161.34-2.18 161.34-7.16L161.34-7.16L161.34-7.16Q161.34-10.30 163.19-12.51L163.19-12.51L163.19-12.51Q165.07-14.78 167.90-14.78L167.90-14.78L167.90-14.78Q168.99-14.78 170.05-14.36L170.05-14.36L173.61-14.78L172.10-5.87L172.10-5.87Q172.06-5.71 172.06-5.54L172.06-5.54ZM168.00-6.30L169.29-13.23L169.29-13.23Q168.89-13.56 168.30-13.56L168.30-13.56L168.30-13.56Q167.71-13.56 167.16-12.90L167.16-12.90L167.16-12.90Q166.62-12.24 166.22-11.09L166.22-11.09L166.22-11.09Q165.36-8.65 165.36-5.21L165.36-5.21L165.36-5.21Q165.36-4.59 165.63-4.26L165.63-4.26L165.63-4.26Q165.89-3.93 166.16-3.93L166.16-3.93L166.16-3.93Q166.82-3.93 167.31-4.59L167.31-4.59L167.31-4.59Q167.81-5.25 168.00-6.30L168.00-6.30ZM181.34 3.73L181.34 3.73L181.34 3.73Q181.34 2.64 182.03 1.96L182.03 1.96L182.03 1.96Q182.72 1.29 183.78 1.29L183.78 1.29L197.67 1.29L197.67 1.29Q197.84 1.85 197.84 2.28L197.84 2.28L197.84 2.28Q197.84 3.27 197.16 3.96L197.16 3.96L197.16 3.96Q196.48 4.65 195.10 4.65L195.10 4.65L181.47 4.65L181.47 4.65Q181.34 4.22 181.34 3.73Z" fill="url(#editing-glowing-gradient)"></path></g></g><style>text {
  font-size: 64px;
  font-family: Arial Black;
  dominant-baseline: central;
  text-anchor: middle;
}</style></svg>